# xmcd CD database file
#
# Track frame offsets:
#	183
#	15063
#	28983
#	46383
#	59800
#	76625
#	87263
#	103368
#	118238
#	137795
#	152640
#
# Disc length: 2685 seconds
#
# Revision: 3
# Processed by: cddbd v1.5.2PL0 Copyright (c) Steve Scherf et al.
# Submitted via: jetAudio 7
#
DISCID=8d0a7b0b
DTITLE=Western Union - Western Union
DYEAR=1983
DGENRE=Country
TTITLE0=Auf der Autobahn (On The Road Again)
TTITLE1=Ein bisschen ja - ein bisschen nein
TTITLE2=Heiße Bräute und kühles Bier
TTITLE3=Unser Lied im Radio (Listen To The Radio)
TTITLE4=Marianne oder Helga
TTITLE5=Countrymusic nachts bis um halb vier
TTITLE6=Dieselcowboys (Mountain Music)
TTITLE7=Gott, ich hoff' der Tag wird gut
TTITLE8=Guter Freund
TTITLE9=Ich möcht' so gerne mal nach Nashville (Live)
TTITLE10=Tequila Sheila (Live)
EXTD=
EXTT0=
EXTT1=
EXTT2=
EXTT3=
EXTT4=
EXTT5=
EXTT6=
EXTT7=
EXTT8=
EXTT9=
EXTT10=
PLAYORDER=
